<svg xmlns="http://www.w3.org/2000/svg" xmlns:xlink="http://www.w3.org/1999/xlink" width="52" zoomAndPan="magnify" viewBox="0 0 39 30.000001" height="40" preserveAspectRatio="xMidYMid meet" version="1.0"><defs><clipPath id="a0e25e2034"><path d="M 0.628906 8.449219 L 38 8.449219 L 38 20.789062 L 0.628906 20.789062 Z M 0.628906 8.449219 " clip-rule="nonzero"/></clipPath></defs><g clip-path="url(#a0e25e2034)"><path fill="#ffd328" d="M 29.371094 12.753906 C 29.371094 12.667969 29.375 12.605469 29.371094 12.542969 C 29.367188 12.398438 29.289062 12.316406 29.140625 12.316406 C 28.894531 12.316406 28.652344 12.316406 28.40625 12.316406 C 28.246094 12.316406 28.167969 12.394531 28.167969 12.554688 C 28.164062 13.695312 28.164062 14.835938 28.167969 15.980469 C 28.167969 16.136719 28.246094 16.214844 28.40625 16.21875 C 28.632812 16.21875 28.863281 16.21875 29.089844 16.21875 C 29.304688 16.21875 29.371094 16.152344 29.371094 15.941406 C 29.371094 15.289062 29.382812 14.632812 29.367188 13.980469 C 29.363281 13.773438 29.425781 13.632812 29.578125 13.5 C 29.820312 13.285156 30.085938 13.167969 30.417969 13.199219 C 30.582031 13.214844 30.75 13.21875 30.914062 13.214844 C 31.054688 13.214844 31.128906 13.140625 31.132812 13 C 31.140625 12.820312 31.140625 12.636719 31.136719 12.457031 C 31.132812 12.324219 31.050781 12.246094 30.921875 12.242188 C 30.46875 12.238281 30.039062 12.316406 29.652344 12.566406 C 29.566406 12.621094 29.480469 12.679688 29.371094 12.753906 M 14.027344 14.257812 L 14.023438 14.257812 C 14.023438 14.824219 14.023438 15.386719 14.023438 15.953125 C 14.023438 16.152344 14.089844 16.21875 14.292969 16.21875 C 14.511719 16.21875 14.730469 16.21875 14.949219 16.21875 C 15.15625 16.21875 15.222656 16.152344 15.222656 15.945312 C 15.222656 15.261719 15.222656 14.578125 15.21875 13.894531 C 15.21875 13.804688 15.246094 13.777344 15.339844 13.777344 C 15.714844 13.785156 16.085938 13.78125 16.460938 13.78125 C 16.621094 13.78125 16.699219 13.699219 16.703125 13.542969 C 16.707031 13.425781 16.707031 13.304688 16.707031 13.1875 C 16.703125 12.992188 16.636719 12.925781 16.441406 12.925781 C 16.074219 12.925781 15.703125 12.921875 15.335938 12.929688 C 15.242188 12.929688 15.210938 12.894531 15.222656 12.808594 C 15.230469 12.707031 15.230469 12.609375 15.242188 12.511719 C 15.285156 12.183594 15.417969 12.011719 15.699219 11.945312 C 15.988281 11.875 16.285156 11.855469 16.585938 11.910156 C 16.695312 11.933594 16.808594 11.9375 16.921875 11.941406 C 17.078125 11.941406 17.160156 11.859375 17.164062 11.703125 C 17.164062 11.59375 17.164062 11.484375 17.164062 11.375 C 17.164062 11.21875 17.097656 11.136719 16.941406 11.109375 C 16.816406 11.089844 16.691406 11.070312 16.566406 11.0625 C 16.074219 11.019531 15.585938 11.015625 15.105469 11.128906 C 14.664062 11.234375 14.3125 11.464844 14.164062 11.910156 C 14.089844 12.125 14.042969 12.351562 14.035156 12.578125 C 14.015625 13.136719 14.027344 13.699219 14.027344 14.257812 M 33.519531 15.925781 C 33.464844 16.125 33.398438 16.304688 33.265625 16.453125 C 33.117188 16.617188 32.933594 16.675781 32.71875 16.640625 C 32.566406 16.617188 32.417969 16.601562 32.265625 16.59375 C 32.125 16.589844 32.042969 16.675781 32.039062 16.816406 C 32.039062 16.929688 32.039062 17.046875 32.039062 17.160156 C 32.039062 17.320312 32.105469 17.40625 32.265625 17.421875 C 32.578125 17.453125 32.890625 17.492188 33.203125 17.492188 C 33.71875 17.5 34.109375 17.261719 34.351562 16.808594 C 34.480469 16.5625 34.597656 16.300781 34.675781 16.035156 C 35.003906 14.878906 35.316406 13.722656 35.632812 12.5625 C 35.679688 12.402344 35.609375 12.316406 35.441406 12.316406 C 35.21875 12.316406 34.996094 12.316406 34.773438 12.316406 C 34.609375 12.316406 34.5 12.402344 34.453125 12.558594 C 34.429688 12.632812 34.410156 12.710938 34.386719 12.785156 C 34.1875 13.511719 33.984375 14.234375 33.789062 14.960938 C 33.765625 15.039062 33.730469 15.058594 33.652344 15.042969 C 33.527344 15.011719 33.429688 14.945312 33.351562 14.847656 C 33.203125 14.660156 33.117188 14.449219 33.046875 14.226562 C 32.875 13.679688 32.710938 13.128906 32.542969 12.578125 C 32.492188 12.40625 32.371094 12.316406 32.191406 12.316406 C 31.96875 12.316406 31.742188 12.316406 31.515625 12.316406 C 31.359375 12.316406 31.296875 12.40625 31.339844 12.558594 C 31.527344 13.171875 31.710938 13.789062 31.902344 14.402344 C 32.011719 14.753906 32.15625 15.089844 32.386719 15.382812 C 32.59375 15.648438 32.859375 15.824219 33.195312 15.882812 C 33.296875 15.902344 33.398438 15.910156 33.519531 15.925781 M 19.925781 15.902344 C 19.929688 15.9375 19.933594 15.949219 19.933594 15.960938 C 19.945312 16.15625 20.007812 16.21875 20.207031 16.21875 C 20.398438 16.21875 20.589844 16.21875 20.78125 16.21875 C 20.957031 16.214844 21.027344 16.144531 21.027344 15.96875 C 21.03125 15.226562 21.03125 14.484375 21.03125 13.742188 C 21.027344 13.5 20.984375 13.261719 20.875 13.042969 C 20.667969 12.636719 20.3125 12.425781 19.882812 12.320312 C 19.488281 12.21875 19.089844 12.230469 18.6875 12.261719 C 18.398438 12.285156 18.117188 12.332031 17.847656 12.453125 C 17.523438 12.597656 17.324219 12.832031 17.296875 13.199219 C 17.285156 13.382812 17.367188 13.480469 17.550781 13.480469 C 17.707031 13.484375 17.863281 13.480469 18.019531 13.480469 C 18.183594 13.484375 18.320312 13.425781 18.429688 13.300781 C 18.476562 13.246094 18.539062 13.199219 18.601562 13.164062 C 18.761719 13.074219 18.945312 13.046875 19.128906 13.050781 C 19.589844 13.050781 19.777344 13.226562 19.824219 13.679688 C 19.835938 13.773438 19.808594 13.800781 19.714844 13.800781 C 19.347656 13.796875 18.980469 13.796875 18.613281 13.800781 C 18.332031 13.800781 18.058594 13.839844 17.796875 13.945312 C 17.3125 14.140625 17.035156 14.488281 17.019531 15.023438 C 17.003906 15.496094 17.261719 15.894531 17.734375 16.113281 C 17.992188 16.230469 18.265625 16.277344 18.542969 16.289062 C 18.976562 16.308594 19.386719 16.230469 19.761719 16.003906 C 19.8125 15.972656 19.863281 15.941406 19.925781 15.902344 M 23.269531 14.496094 L 23.242188 14.496094 C 23.234375 14.464844 23.222656 14.429688 23.210938 14.398438 C 23.039062 13.816406 22.867188 13.238281 22.695312 12.660156 C 22.628906 12.449219 22.476562 12.324219 22.257812 12.320312 C 22.023438 12.3125 21.789062 12.316406 21.554688 12.316406 C 21.449219 12.320312 21.402344 12.371094 21.402344 12.472656 C 21.398438 12.523438 21.410156 12.578125 21.421875 12.628906 C 21.449219 12.730469 21.484375 12.828125 21.519531 12.929688 C 21.835938 13.914062 22.152344 14.894531 22.46875 15.878906 C 22.542969 16.101562 22.703125 16.214844 22.9375 16.21875 C 23.085938 16.21875 23.230469 16.21875 23.375 16.21875 C 23.632812 16.214844 23.792969 16.101562 23.871094 15.859375 C 24.078125 15.210938 24.28125 14.5625 24.484375 13.914062 C 24.496094 13.882812 24.507812 13.851562 24.527344 13.796875 C 24.550781 13.859375 24.5625 13.894531 24.574219 13.925781 C 24.777344 14.570312 24.980469 15.21875 25.1875 15.863281 C 25.261719 16.097656 25.425781 16.214844 25.675781 16.21875 C 25.816406 16.21875 25.957031 16.21875 26.101562 16.21875 C 26.355469 16.214844 26.511719 16.105469 26.589844 15.867188 C 26.882812 14.957031 27.175781 14.050781 27.46875 13.144531 C 27.535156 12.945312 27.601562 12.75 27.652344 12.546875 C 27.691406 12.390625 27.621094 12.316406 27.460938 12.316406 C 27.269531 12.316406 27.078125 12.316406 26.886719 12.316406 C 26.578125 12.316406 26.429688 12.429688 26.34375 12.71875 C 26.195312 13.226562 26.042969 13.734375 25.894531 14.238281 C 25.867188 14.324219 25.839844 14.410156 25.8125 14.5 C 25.769531 14.445312 25.753906 14.390625 25.738281 14.335938 C 25.570312 13.769531 25.40625 13.203125 25.238281 12.636719 C 25.171875 12.414062 25.035156 12.316406 24.804688 12.316406 C 24.625 12.316406 24.449219 12.316406 24.269531 12.316406 C 24.015625 12.316406 23.886719 12.410156 23.8125 12.65625 C 23.710938 13 23.609375 13.347656 23.507812 13.691406 C 23.429688 13.960938 23.351562 14.226562 23.269531 14.496094 M 36.871094 20.117188 L 1.761719 20.117188 C 1.738281 20.109375 1.710938 20.101562 1.6875 20.097656 C 1.289062 20.054688 0.972656 19.785156 0.867188 19.398438 C 0.855469 19.351562 0.839844 19.308594 0.828125 19.265625 L 0.828125 9.265625 C 0.835938 9.246094 0.84375 9.226562 0.851562 9.203125 C 0.941406 8.804688 1.179688 8.554688 1.582031 8.453125 C 1.640625 8.4375 1.699219 8.429688 1.761719 8.414062 L 36.871094 8.414062 C 36.894531 8.421875 36.917969 8.433594 36.945312 8.4375 C 37.34375 8.480469 37.660156 8.75 37.765625 9.136719 C 37.777344 9.179688 37.792969 9.222656 37.804688 9.265625 L 37.804688 19.265625 C 37.796875 19.289062 37.785156 19.308594 37.78125 19.328125 C 37.691406 19.726562 37.449219 19.980469 37.050781 20.078125 C 36.992188 20.09375 36.929688 20.105469 36.871094 20.117188 " fill-opacity="1" fill-rule="nonzero"/></g><path fill="#006e96" d="M 23.269531 14.496094 C 23.351562 14.226562 23.429688 13.960938 23.507812 13.691406 C 23.609375 13.347656 23.710938 13 23.8125 12.65625 C 23.886719 12.410156 24.015625 12.316406 24.269531 12.316406 C 24.449219 12.316406 24.625 12.316406 24.804688 12.316406 C 25.035156 12.316406 25.171875 12.414062 25.238281 12.636719 C 25.40625 13.203125 25.570312 13.769531 25.738281 14.335938 C 25.753906 14.390625 25.769531 14.445312 25.8125 14.5 C 25.839844 14.410156 25.867188 14.324219 25.894531 14.238281 C 26.042969 13.734375 26.195312 13.226562 26.34375 12.71875 C 26.429688 12.429688 26.578125 12.316406 26.882812 12.316406 C 27.078125 12.316406 27.269531 12.316406 27.460938 12.316406 C 27.621094 12.316406 27.691406 12.390625 27.652344 12.546875 C 27.601562 12.75 27.535156 12.945312 27.46875 13.144531 C 27.175781 14.050781 26.882812 14.957031 26.589844 15.867188 C 26.511719 16.105469 26.355469 16.214844 26.101562 16.21875 C 25.957031 16.21875 25.816406 16.21875 25.675781 16.21875 C 25.425781 16.214844 25.261719 16.097656 25.1875 15.863281 C 24.980469 15.21875 24.777344 14.570312 24.574219 13.925781 C 24.5625 13.894531 24.550781 13.859375 24.527344 13.796875 C 24.507812 13.851562 24.496094 13.882812 24.484375 13.914062 C 24.28125 14.5625 24.078125 15.210938 23.871094 15.859375 C 23.792969 16.101562 23.632812 16.214844 23.375 16.21875 C 23.230469 16.21875 23.085938 16.21875 22.9375 16.21875 C 22.703125 16.214844 22.542969 16.101562 22.46875 15.878906 C 22.152344 14.894531 21.835938 13.914062 21.519531 12.929688 C 21.484375 12.828125 21.449219 12.730469 21.421875 12.628906 C 21.410156 12.578125 21.398438 12.523438 21.402344 12.472656 C 21.402344 12.371094 21.449219 12.320312 21.554688 12.316406 C 21.789062 12.316406 22.023438 12.3125 22.257812 12.320312 C 22.476562 12.324219 22.628906 12.449219 22.695312 12.660156 C 22.867188 13.238281 23.039062 13.816406 23.210938 14.398438 C 23.222656 14.429688 23.234375 14.464844 23.242188 14.496094 Z M 23.269531 14.496094 " fill-opacity="1" fill-rule="nonzero"/><path fill="#006e96" d="M 19.214844 14.605469 L 19.214844 14.609375 C 19.035156 14.609375 18.851562 14.601562 18.671875 14.613281 C 18.492188 14.625 18.34375 14.699219 18.261719 14.871094 C 18.148438 15.117188 18.292969 15.398438 18.582031 15.457031 C 19.023438 15.542969 19.417969 15.402344 19.789062 15.179688 C 19.8125 15.164062 19.828125 15.117188 19.828125 15.085938 C 19.832031 14.957031 19.828125 14.828125 19.832031 14.699219 C 19.832031 14.625 19.804688 14.601562 19.730469 14.605469 C 19.558594 14.609375 19.386719 14.605469 19.214844 14.605469 M 19.925781 15.902344 C 19.863281 15.941406 19.8125 15.972656 19.761719 16.003906 C 19.386719 16.230469 18.976562 16.308594 18.542969 16.289062 C 18.265625 16.277344 17.992188 16.230469 17.734375 16.113281 C 17.261719 15.894531 17.003906 15.496094 17.019531 15.023438 C 17.035156 14.488281 17.3125 14.140625 17.796875 13.945312 C 18.058594 13.839844 18.332031 13.800781 18.613281 13.800781 C 18.980469 13.796875 19.347656 13.796875 19.714844 13.800781 C 19.808594 13.800781 19.835938 13.773438 19.824219 13.679688 C 19.777344 13.226562 19.589844 13.050781 19.128906 13.050781 C 18.945312 13.046875 18.761719 13.074219 18.601562 13.164062 C 18.539062 13.199219 18.476562 13.246094 18.429688 13.300781 C 18.320312 13.425781 18.183594 13.484375 18.019531 13.480469 C 17.863281 13.480469 17.707031 13.484375 17.550781 13.480469 C 17.367188 13.480469 17.285156 13.382812 17.296875 13.199219 C 17.324219 12.832031 17.523438 12.597656 17.847656 12.453125 C 18.117188 12.332031 18.398438 12.285156 18.6875 12.261719 C 19.089844 12.230469 19.488281 12.21875 19.882812 12.320312 C 20.3125 12.425781 20.667969 12.636719 20.875 13.042969 C 20.984375 13.261719 21.027344 13.5 21.027344 13.742188 C 21.03125 14.484375 21.03125 15.226562 21.027344 15.96875 C 21.027344 16.144531 20.957031 16.214844 20.78125 16.21875 C 20.589844 16.21875 20.398438 16.21875 20.207031 16.21875 C 20.007812 16.21875 19.945312 16.15625 19.933594 15.960938 C 19.933594 15.949219 19.929688 15.9375 19.925781 15.902344 " fill-opacity="1" fill-rule="nonzero"/><path fill="#006e96" d="M 33.519531 15.925781 C 33.398438 15.910156 33.296875 15.902344 33.195312 15.882812 C 32.859375 15.824219 32.59375 15.648438 32.386719 15.382812 C 32.15625 15.089844 32.011719 14.753906 31.902344 14.402344 C 31.710938 13.789062 31.527344 13.171875 31.339844 12.558594 C 31.296875 12.40625 31.359375 12.316406 31.515625 12.316406 C 31.742188 12.316406 31.96875 12.316406 32.191406 12.316406 C 32.371094 12.316406 32.492188 12.40625 32.542969 12.578125 C 32.710938 13.128906 32.875 13.679688 33.046875 14.226562 C 33.117188 14.449219 33.203125 14.660156 33.351562 14.847656 C 33.429688 14.945312 33.527344 15.011719 33.652344 15.042969 C 33.730469 15.058594 33.765625 15.039062 33.789062 14.960938 C 33.984375 14.234375 34.1875 13.511719 34.386719 12.785156 C 34.410156 12.710938 34.429688 12.632812 34.453125 12.558594 C 34.5 12.402344 34.609375 12.316406 34.773438 12.316406 C 34.996094 12.316406 35.21875 12.316406 35.441406 12.316406 C 35.609375 12.316406 35.679688 12.402344 35.632812 12.5625 C 35.316406 13.722656 35.003906 14.878906 34.675781 16.035156 C 34.597656 16.300781 34.480469 16.5625 34.351562 16.808594 C 34.109375 17.261719 33.71875 17.5 33.203125 17.492188 C 32.890625 17.492188 32.578125 17.453125 32.265625 17.421875 C 32.105469 17.40625 32.039062 17.320312 32.039062 17.160156 C 32.039062 17.046875 32.039062 16.929688 32.039062 16.816406 C 32.042969 16.675781 32.125 16.589844 32.265625 16.59375 C 32.417969 16.601562 32.566406 16.617188 32.71875 16.640625 C 32.933594 16.675781 33.117188 16.617188 33.265625 16.453125 C 33.398438 16.304688 33.464844 16.125 33.519531 15.925781 " fill-opacity="1" fill-rule="nonzero"/><path fill="#006e96" d="M 14.027344 14.257812 C 14.027344 13.699219 14.015625 13.136719 14.035156 12.578125 C 14.042969 12.351562 14.089844 12.125 14.164062 11.910156 C 14.3125 11.464844 14.664062 11.234375 15.105469 11.128906 C 15.585938 11.015625 16.074219 11.019531 16.566406 11.0625 C 16.691406 11.070312 16.816406 11.089844 16.941406 11.109375 C 17.097656 11.136719 17.164062 11.21875 17.164062 11.375 C 17.164062 11.484375 17.164062 11.59375 17.164062 11.703125 C 17.160156 11.859375 17.078125 11.941406 16.921875 11.941406 C 16.808594 11.9375 16.695312 11.933594 16.585938 11.910156 C 16.285156 11.855469 15.988281 11.875 15.699219 11.945312 C 15.417969 12.011719 15.285156 12.183594 15.242188 12.511719 C 15.230469 12.609375 15.230469 12.707031 15.222656 12.808594 C 15.210938 12.894531 15.246094 12.929688 15.335938 12.929688 C 15.707031 12.921875 16.074219 12.925781 16.441406 12.925781 C 16.636719 12.925781 16.703125 12.992188 16.707031 13.1875 C 16.707031 13.304688 16.707031 13.425781 16.703125 13.542969 C 16.699219 13.699219 16.621094 13.78125 16.460938 13.78125 C 16.085938 13.78125 15.714844 13.785156 15.339844 13.777344 C 15.246094 13.777344 15.21875 13.804688 15.21875 13.894531 C 15.222656 14.578125 15.222656 15.261719 15.222656 15.945312 C 15.222656 16.152344 15.15625 16.21875 14.949219 16.21875 C 14.730469 16.21875 14.511719 16.21875 14.292969 16.21875 C 14.089844 16.21875 14.023438 16.152344 14.023438 15.953125 C 14.023438 15.386719 14.023438 14.824219 14.023438 14.257812 Z M 14.027344 14.257812 " fill-opacity="1" fill-rule="nonzero"/><path fill="#006e96" d="M 29.371094 12.753906 C 29.480469 12.679688 29.566406 12.621094 29.652344 12.566406 C 30.039062 12.316406 30.46875 12.238281 30.921875 12.242188 C 31.050781 12.246094 31.132812 12.324219 31.136719 12.457031 C 31.140625 12.636719 31.140625 12.820312 31.132812 13 C 31.128906 13.140625 31.054688 13.214844 30.914062 13.214844 C 30.75 13.21875 30.582031 13.214844 30.417969 13.199219 C 30.085938 13.167969 29.820312 13.285156 29.578125 13.5 C 29.425781 13.632812 29.363281 13.773438 29.367188 13.980469 C 29.382812 14.632812 29.371094 15.289062 29.371094 15.941406 C 29.371094 16.152344 29.304688 16.21875 29.089844 16.21875 C 28.863281 16.21875 28.632812 16.21875 28.40625 16.21875 C 28.246094 16.214844 28.167969 16.136719 28.167969 15.980469 C 28.164062 14.835938 28.164062 13.695312 28.167969 12.554688 C 28.167969 12.394531 28.246094 12.316406 28.40625 12.316406 C 28.652344 12.316406 28.894531 12.316406 29.140625 12.316406 C 29.289062 12.316406 29.367188 12.398438 29.371094 12.542969 C 29.375 12.605469 29.371094 12.667969 29.371094 12.753906 " fill-opacity="1" fill-rule="nonzero"/><path fill="#ffd328" d="M 19.214844 14.605469 C 19.386719 14.605469 19.558594 14.609375 19.730469 14.605469 C 19.804688 14.601562 19.832031 14.625 19.832031 14.699219 C 19.828125 14.828125 19.832031 14.957031 19.828125 15.085938 C 19.828125 15.117188 19.8125 15.164062 19.789062 15.179688 C 19.417969 15.402344 19.023438 15.542969 18.582031 15.457031 C 18.292969 15.398438 18.148438 15.117188 18.261719 14.871094 C 18.34375 14.699219 18.492188 14.625 18.671875 14.613281 C 18.851562 14.601562 19.035156 14.609375 19.214844 14.609375 Z M 19.214844 14.605469 " fill-opacity="1" fill-rule="nonzero"/><path fill="#ffffff" d="M 12.160156 14.230469 C 12.160156 16.78125 10.082031 18.851562 7.519531 18.851562 C 7.03125 18.851562 6.5625 18.777344 6.117188 18.636719 C 5.453125 18.429688 4.851562 18.074219 4.355469 17.613281 C 3.445312 16.769531 2.878906 15.566406 2.878906 14.230469 C 2.878906 11.679688 4.957031 9.609375 7.519531 9.609375 C 8.074219 9.609375 8.605469 9.707031 9.097656 9.882812 C 9.738281 10.113281 10.316406 10.480469 10.789062 10.953125 C 11.636719 11.789062 12.160156 12.949219 12.160156 14.230469 " fill-opacity="1" fill-rule="nonzero"/><path fill="#006e96" d="M 9.671875 16.191406 L 9.046875 15.882812 C 9.046875 15.882812 7.980469 17.816406 6.117188 18.636719 C 5.453125 18.429688 4.851562 18.074219 4.355469 17.613281 C 4.761719 17.550781 5.425781 17.34375 6.121094 16.660156 C 7.257812 15.546875 7.519531 14.9375 7.519531 14.9375 L 7.03125 14.613281 C 6.863281 14.5 6.894531 14.246094 7.085938 14.179688 L 9.230469 13.4375 C 9.375 13.386719 9.53125 13.484375 9.550781 13.636719 L 9.871094 16.050781 C 9.882812 16.160156 9.769531 16.242188 9.671875 16.191406 " fill-opacity="1" fill-rule="nonzero"/><path fill="#006e96" d="M 10.316406 13.515625 C 10.265625 13.648438 10.070312 13.628906 10.046875 13.488281 L 9.902344 12.671875 L 8.84375 13 C 8.726562 13.035156 8.621094 12.914062 8.675781 12.804688 C 8.8125 12.511719 9.019531 12.015625 9.175781 11.371094 C 9.328125 10.761719 9.21875 10.226562 9.097656 9.882812 C 9.738281 10.113281 10.316406 10.480469 10.789062 10.953125 C 10.875 11.921875 10.542969 12.953125 10.316406 13.515625 " fill-opacity="1" fill-rule="nonzero"/></svg>