<svg width="32" height="32" viewBox="0 0 32 32" fill="none" xmlns="http://www.w3.org/2000/svg">
<mask id="mask0_0_1275" style="mask-type:alpha" maskUnits="userSpaceOnUse" x="9" y="9" width="14" height="15">
<path fill-rule="evenodd" clip-rule="evenodd" d="M13.6425 12.627H14.7855C15.3375 12.627 15.7855 13.075 15.7855 13.627C15.7855 14.179 15.3375 14.627 14.7855 14.627H13.6425V22.5C13.6425 23.052 13.1955 23.5 12.6425 23.5C12.0905 23.5 11.6425 23.052 11.6425 22.5V14.627H10.4995C9.94751 14.627 9.49951 14.179 9.49951 13.627C9.49951 13.075 9.94751 12.627 10.4995 12.627H11.6425V10.827C11.6425 10.275 12.0905 9.827 12.6425 9.827C13.1955 9.827 13.6425 10.275 13.6425 10.827V12.627ZM20.666 17.9116H21.809C22.361 17.9116 22.809 18.3596 22.809 18.9116C22.809 19.4636 22.361 19.9116 21.809 19.9116H20.666V22.4996C20.666 23.0526 20.219 23.4996 19.666 23.4996C19.114 23.4996 18.666 23.0526 18.666 22.4996V19.9116H17.523C16.971 19.9116 16.523 19.4636 16.523 18.9116C16.523 18.3596 16.971 17.9116 17.523 17.9116H18.666V10.8276C18.666 10.2746 19.114 9.8276 19.666 9.8276C20.219 9.8276 20.666 10.2746 20.666 10.8276V17.9116Z" fill="white"/>
</mask>
<g mask="url(#mask0_0_1275)">
<rect x="-29" y="-27.25" width="84" height="84" fill="#FC1055"/>
</g>
</svg>
