<svg width="19" height="18" viewBox="0 0 19 18" fill="none" xmlns="http://www.w3.org/2000/svg">
<path fill-rule="evenodd" clip-rule="evenodd" d="M7.24699 2.38212C6.42194 2.58553 5.84335 3.31208 5.84335 4.14521V6.78038V12.6496C5.32002 12.4868 4.73978 12.3932 4.12582 12.3932C1.84739 12.3932 0 13.6483 0 15.1966C0 16.7454 1.84739 18 4.12582 18C6.40425 18 8.25109 16.7454 8.25109 15.1966V6.18691L16.5917 4.13222V10.4678C16.0684 10.3049 15.4876 10.2113 14.8742 10.2113C12.5957 10.2113 10.7484 11.4659 10.7484 13.0142C10.7484 14.5631 12.5957 15.8182 14.8742 15.8182C17.1526 15.8182 19 14.5631 19 13.0142V3.5393V1.8184C19 0.635254 17.8627 -0.233037 16.6901 0.0558521L7.24699 2.38212Z" fill="#5798FF"/>
</svg>
