<svg xmlns="http://www.w3.org/2000/svg" xmlns:xlink="http://www.w3.org/1999/xlink" width="52" zoomAndPan="magnify" viewBox="0 0 39 37.5" height="50" preserveAspectRatio="xMidYMid meet" version="1.0"><defs><clipPath id="d740bcb0f7"><path d="M 0.257812 0 L 38 0 L 38 37.007812 L 0.257812 37.007812 Z M 0.257812 0 " clip-rule="nonzero"/></clipPath></defs><g clip-path="url(#d740bcb0f7)"><path fill="#1e4bc6" d="M 37.109375 12.972656 C 36.671875 9.546875 35.449219 6.429688 33.304688 4.144531 C 31.03125 1.996094 27.925781 0.765625 24.511719 0.324219 C 21.230469 -0.113281 19 0.0195312 19 0.0195312 C 19 0.0195312 16.769531 -0.0703125 13.488281 0.324219 C 10.074219 0.765625 6.96875 1.996094 4.695312 4.144531 C 2.550781 6.429688 1.328125 9.546875 0.890625 12.972656 C 0.453125 16.265625 0.539062 18.503906 0.539062 18.503906 C 0.539062 18.503906 0.453125 20.742188 0.84375 24.035156 C 1.28125 27.460938 2.507812 30.578125 4.652344 32.859375 C 6.925781 35.011719 10.03125 36.242188 13.445312 36.679688 C 16.726562 37.121094 18.957031 36.988281 18.957031 36.988281 C 18.957031 36.988281 21.1875 37.074219 24.46875 36.679688 C 27.878906 36.242188 30.988281 35.011719 33.261719 32.859375 C 35.40625 30.578125 36.628906 27.460938 37.066406 24.035156 C 37.503906 20.742188 37.375 18.503906 37.375 18.503906 C 37.375 18.503906 37.546875 16.265625 37.109375 12.972656 " fill-opacity="1" fill-rule="nonzero"/></g><path fill="#ffffff" d="M 7.363281 13.101562 L 7.363281 22.804688 L 9.15625 22.804688 L 9.15625 20.039062 L 10.644531 20.039062 C 11.167969 20.039062 11.652344 19.953125 12.046875 19.777344 C 12.4375 19.601562 12.832031 19.335938 13.136719 19.03125 C 13.445312 18.722656 13.707031 18.371094 13.882812 17.933594 C 14.058594 17.492188 14.144531 17.054688 14.144531 16.570312 C 14.144531 16.089844 14.058594 15.648438 13.882812 15.210938 C 13.707031 14.773438 13.445312 14.421875 13.136719 14.113281 C 12.832031 13.804688 12.484375 13.542969 12.046875 13.367188 C 11.609375 13.191406 11.167969 13.101562 10.644531 13.101562 Z M 9.113281 14.726562 L 10.515625 14.726562 C 10.777344 14.726562 11.039062 14.773438 11.257812 14.859375 C 11.476562 14.949219 11.652344 15.078125 11.828125 15.253906 C 11.957031 15.429688 12.089844 15.605469 12.175781 15.824219 C 12.261719 16.046875 12.308594 16.265625 12.308594 16.527344 C 12.308594 16.792969 12.261719 17.011719 12.175781 17.230469 C 12.089844 17.449219 12 17.625 11.828125 17.800781 C 11.652344 17.976562 11.476562 18.109375 11.257812 18.195312 C 11.039062 18.285156 10.777344 18.328125 10.515625 18.328125 L 9.113281 18.328125 Z M 18.300781 14.992188 C 17.773438 14.992188 17.339844 15.078125 16.855469 15.253906 C 16.417969 15.429688 15.980469 15.648438 15.632812 16 C 15.28125 16.351562 14.976562 16.746094 14.757812 17.230469 C 14.539062 17.714844 14.449219 18.285156 14.449219 18.898438 C 14.449219 19.511719 14.582031 20.082031 14.800781 20.566406 C 15.019531 21.050781 15.324219 21.445312 15.675781 21.796875 C 16.023438 22.105469 16.464844 22.367188 16.902344 22.542969 C 17.382812 22.71875 17.820312 22.804688 18.300781 22.804688 C 18.824219 22.804688 19.261719 22.71875 19.699219 22.542969 C 20.136719 22.324219 20.53125 22.058594 20.792969 21.707031 L 20.792969 22.804688 L 22.585938 22.804688 L 22.585938 14.992188 L 20.792969 14.992188 L 20.792969 16 C 20.488281 15.691406 20.136719 15.429688 19.699219 15.253906 C 19.308594 15.078125 18.824219 14.992188 18.300781 14.992188 Z M 23.199219 15.035156 L 26.347656 22.457031 L 24.730469 26.363281 L 26.566406 26.363281 L 31.160156 15.035156 L 29.28125 15.035156 L 27.269531 20.347656 L 25.082031 15.035156 Z M 18.605469 16.660156 C 18.914062 16.660156 19.21875 16.703125 19.523438 16.878906 C 19.832031 17.011719 20.050781 17.144531 20.269531 17.363281 C 20.488281 17.539062 20.617188 17.800781 20.75 18.066406 C 20.882812 18.328125 20.925781 18.636719 20.925781 18.941406 C 20.925781 19.25 20.882812 19.554688 20.75 19.820312 C 20.617188 20.085938 20.488281 20.304688 20.269531 20.523438 C 20.050781 20.742188 19.789062 20.875 19.523438 21.007812 C 19.261719 21.136719 18.957031 21.183594 18.605469 21.183594 C 18.257812 21.183594 17.949219 21.09375 17.6875 21.007812 C 17.425781 20.875 17.164062 20.742188 16.945312 20.523438 C 16.769531 20.304688 16.59375 20.042969 16.464844 19.777344 C 16.332031 19.511719 16.289062 19.207031 16.289062 18.898438 C 16.289062 18.589844 16.332031 18.285156 16.464844 18.019531 C 16.550781 17.757812 16.726562 17.539062 16.945312 17.320312 C 17.164062 17.097656 17.382812 16.96875 17.6875 16.835938 C 17.992188 16.703125 18.300781 16.660156 18.605469 16.660156 Z M 18.605469 16.660156 " fill-opacity="1" fill-rule="nonzero"/></svg>