<svg width="20" height="20" viewBox="0 0 20 20" fill="none" xmlns="http://www.w3.org/2000/svg">
<path fill-rule="evenodd" clip-rule="evenodd" d="M3.03852 12.1124C3.03852 9.3742 5.26599 7.14673 8.00311 7.14673C8.48034 7.14673 8.96939 7.16844 9.40687 7.34791C10.083 7.6253 10.083 8.45214 10.083 8.45214L8.28699 10.2482C8.19311 10.2337 8.10034 10.2191 8.00311 10.2191C6.95922 10.2191 6.11093 11.0686 6.11093 12.1124C6.11093 13.1552 6.95922 14.0046 8.00311 14.0046C9.04699 14.0046 9.8964 13.1552 9.8964 12.1124C9.8964 12.0152 9.88187 11.9213 9.86734 11.8286L11.7059 9.98891L12.5665 10.1722C12.8269 10.7847 12.9677 11.434 12.9677 12.1124C12.9677 14.8496 10.7402 17.077 8.00311 17.077C5.26599 17.077 3.03852 14.8496 3.03852 12.1124ZM13.6953 4.20955L13.9199 5.26797C14.0116 5.69938 14.3491 6.03691 14.7816 6.12855L15.8389 6.35208L14.0004 8.19173L12.2334 7.8162L11.8568 6.04808L13.6953 4.20955ZM18.8756 6.47726C19.165 6.18667 19.2723 5.76197 19.1561 5.36856C19.0399 4.97626 18.718 4.67785 18.3168 4.59291L15.9563 4.0922L15.4545 1.73173C15.3695 1.3305 15.0722 1.00861 14.6788 0.892378C14.2843 0.776143 13.8607 0.883437 13.5712 1.17403L9.84722 4.89691C9.77905 4.96508 9.72093 5.0422 9.67287 5.12491C9.12634 4.99414 8.56863 4.91144 8.00311 4.91144C4.03322 4.91144 0.803223 8.14144 0.803223 12.1124C0.803223 16.0823 4.03322 19.3123 8.00311 19.3123C11.973 19.3123 15.203 16.0823 15.203 12.1124C15.203 11.4988 15.1214 10.9009 14.9716 10.3208C15.032 10.2806 15.099 10.2538 15.1516 10.2013L18.8756 6.47726Z" fill="#E69960"/>
</svg>
