<?xml version="1.0" encoding="UTF-8" standalone="no"?>
<!DOCTYPE svg PUBLIC "-//W3C//DTD SVG 1.1//EN" "http://www.w3.org/Graphics/SVG/1.1/DTD/svg11.dtd">
<svg xmlns="http://www.w3.org/2000/svg" xmlns:xlink="http://www.w3.org/1999/xlink" version="1.1" width="595.276pt" height="359.89pt" viewBox="0 0 595.276 359.89">
<g enable-background="new">
<g id="Layer-1" data-name="Layer 1">
<clipPath id="cp0">
<path transform="matrix(1,0,0,-1,0,359.89)" d="M 0 359.89 L 595.276 359.89 L 595.276 0 L 0 0 Z "/>
</clipPath>
<g clip-path="url(#cp0)">
<path transform="matrix(1,0,0,-1,155.5889,107.68431)" d="M 0 0 L -51.847 -122.909 C -51.855 -122.936 -51.873 -122.971 -51.891 -122.998 C -51.962 -123.184 -52.051 -123.362 -52.139 -123.539 C -52.157 -123.583 -52.184 -123.627 -52.202 -123.663 C -52.272 -123.805 -52.353 -123.938 -52.432 -124.071 C -52.512 -124.213 -52.592 -124.355 -52.689 -124.488 C -52.805 -124.674 -52.938 -124.861 -53.071 -125.039 C -53.115 -125.1 -53.16 -125.163 -53.213 -125.224 C -53.319 -125.367 -53.435 -125.5 -53.541 -125.624 C -53.568 -125.66 -53.603 -125.695 -53.639 -125.721 C -53.754 -125.854 -53.878 -125.988 -54.011 -126.121 C -54.083 -126.201 -54.153 -126.271 -54.233 -126.333 C -54.339 -126.44 -54.455 -126.538 -54.57 -126.635 C -54.624 -126.688 -54.686 -126.742 -54.748 -126.786 C -54.881 -126.901 -55.023 -127.007 -55.173 -127.114 C -55.218 -127.15 -55.262 -127.176 -55.307 -127.203 C -55.439 -127.309 -55.582 -127.398 -55.724 -127.487 C -55.83 -127.558 -55.945 -127.628 -56.061 -127.691 C -56.158 -127.753 -56.265 -127.815 -56.371 -127.869 C -56.478 -127.921 -56.584 -127.984 -56.69 -128.028 C -56.815 -128.09 -56.939 -128.152 -57.072 -128.206 C -57.169 -128.25 -57.258 -128.286 -57.356 -128.33 C -57.462 -128.374 -57.578 -128.418 -57.684 -128.454 C -57.844 -128.507 -58.003 -128.569 -58.172 -128.614 C -58.243 -128.64 -58.323 -128.658 -58.403 -128.684 C -58.58 -128.729 -58.758 -128.773 -58.935 -128.818 L -58.953 -128.818 C -59.175 -128.871 -59.405 -128.916 -59.636 -128.951 L -59.663 -128.951 C -59.902 -128.986 -60.142 -129.013 -60.381 -129.031 C -60.621 -129.048 -60.869 -129.057 -61.109 -129.057 L -61.118 -129.057 C -61.357 -129.057 -61.605 -129.048 -61.845 -129.031 C -62.084 -129.013 -62.324 -128.986 -62.563 -128.951 L -62.59 -128.951 C -62.821 -128.916 -63.052 -128.871 -63.273 -128.818 L -63.291 -128.818 C -63.469 -128.773 -63.646 -128.729 -63.823 -128.684 C -63.903 -128.658 -63.983 -128.64 -64.054 -128.614 C -64.214 -128.569 -64.382 -128.516 -64.542 -128.454 C -64.648 -128.418 -64.764 -128.374 -64.87 -128.33 C -64.923 -128.312 -64.968 -128.286 -65.021 -128.267 C -65.065 -128.25 -65.11 -128.232 -65.154 -128.206 C -65.287 -128.152 -65.412 -128.09 -65.536 -128.028 C -65.642 -127.984 -65.749 -127.921 -65.855 -127.869 C -65.961 -127.815 -66.068 -127.753 -66.166 -127.691 C -66.281 -127.628 -66.396 -127.558 -66.503 -127.487 C -66.645 -127.398 -66.787 -127.309 -66.92 -127.203 C -66.964 -127.176 -67.008 -127.15 -67.053 -127.114 C -67.195 -127.007 -67.346 -126.901 -67.479 -126.786 C -67.541 -126.742 -67.594 -126.688 -67.647 -126.644 C -67.825 -126.494 -67.984 -126.342 -68.153 -126.183 C -68.304 -126.032 -68.463 -125.873 -68.614 -125.704 C -68.632 -125.677 -68.659 -125.65 -68.676 -125.624 C -68.8 -125.482 -68.925 -125.331 -69.04 -125.18 C -69.084 -125.136 -69.12 -125.083 -69.155 -125.03 C -69.271 -124.878 -69.377 -124.728 -69.484 -124.568 C -69.51 -124.533 -69.528 -124.497 -69.555 -124.461 C -69.67 -124.284 -69.776 -124.107 -69.874 -123.92 C -69.9 -123.885 -69.918 -123.858 -69.927 -123.823 C -70.025 -123.654 -70.114 -123.486 -70.193 -123.308 C -70.22 -123.264 -70.247 -123.21 -70.264 -123.158 C -70.309 -123.078 -70.344 -122.998 -70.38 -122.909 L -122.226 0 C -124.382 5.119 -121.987 11.019 -116.868 13.184 C -111.749 15.339 -105.849 12.944 -103.693 7.825 L -61.109 -93.118 L -18.533 7.825 C -16.377 12.944 -10.478 15.339 -5.358 13.184 C -.24 11.019 2.165 5.119 0 0 " fill="#08a79e"/>
<path transform="matrix(1,0,0,-1,230.3066,216.85962)" d="M 0 0 C -28.47 0 -51.634 23.164 -51.634 51.633 C -51.634 80.103 -28.47 103.267 0 103.267 C 28.469 103.267 51.633 80.103 51.633 51.633 C 51.633 23.164 28.469 0 0 0 M 71.746 52.148 C 71.471 91.485 39.399 123.388 0 123.388 C -39.559 123.388 -71.746 91.201 -71.746 51.633 C -71.746 12.074 -39.559 -20.112 0 -20.112 C 20.254 -20.112 38.565 -11.685 51.633 1.854 L 51.633 -10.061 C 51.633 -15.614 56.14 -20.112 61.694 -20.112 C 67.248 -20.112 71.755 -15.614 71.755 -10.061 L 71.755 51.633 C 71.755 51.811 71.755 51.979 71.746 52.148 " fill="#08a79e"/>
<path transform="matrix(1,0,0,-1,367.2803,244.32932)" d="M 0 0 C -3.069 0 -6.098 1.398 -8.073 4.048 L -18.69 18.29 C -40.026 46.35 -51.775 81.211 -51.775 116.463 L -51.775 187.161 C -51.775 192.716 -47.271 197.22 -41.716 197.22 C -36.16 197.22 -31.656 192.716 -31.656 187.161 L -31.656 116.463 C -31.656 85.571 -21.354 55.019 -2.65 30.434 L -2.591 30.354 L 8.057 16.072 C 11.377 11.618 10.459 5.315 6.005 1.995 C 4.199 .649 2.09 0 0 0 " fill="#08a79e"/>
<path transform="matrix(1,0,0,-1,528.5039,122.29611)" d="M 0 0 L 0 -10.646 C 0 -48.235 -30.581 -78.825 -68.171 -78.825 C -105.761 -78.825 -136.35 -48.235 -136.35 -10.646 L -136.35 0 C -136.35 5.554 -131.843 10.061 -126.289 10.061 C -120.735 10.061 -116.229 5.554 -116.229 0 L -116.229 -10.646 C -116.229 -37.146 -94.671 -58.704 -68.171 -58.704 C -41.671 -58.704 -20.112 -37.146 -20.112 -10.646 L -20.112 0 C -20.112 5.554 -15.614 10.061 -10.061 10.061 C -4.498 10.061 0 5.554 0 0 " fill="#f7941d"/>
<path transform="matrix(1,0,0,-1,544.8545,132.94211)" d="M 0 0 C 0 -46.603 -37.918 -84.521 -84.521 -84.521 C -131.125 -84.521 -169.042 -46.603 -169.042 0 L -169.042 28.39 C -169.042 42.975 -157.226 54.792 -142.64 54.792 C -128.055 54.792 -116.229 42.975 -116.229 28.39 L -116.229 0 C -116.229 -17.486 -102.008 -31.708 -84.521 -31.708 C -67.035 -31.708 -52.813 -17.486 -52.813 0 L -52.813 28.39 C -52.813 42.975 -40.987 54.792 -26.411 54.792 C -11.826 54.792 0 42.975 0 28.39 Z M -26.411 74.913 C -52.06 74.913 -72.935 54.038 -72.935 28.39 L -72.935 0 C -72.935 -6.396 -78.134 -11.595 -84.521 -11.595 C -90.918 -11.595 -96.116 -6.396 -96.116 0 L -96.116 28.39 C -96.116 54.038 -116.983 74.913 -142.64 74.913 C -168.288 74.913 -189.163 54.038 -189.163 28.39 L -189.163 0 C -189.163 -57.702 -142.223 -104.642 -84.521 -104.642 C -26.828 -104.642 20.112 -57.702 20.112 0 L 20.112 28.39 C 20.112 54.038 -.754 74.913 -26.411 74.913 " fill="#f7941d"/>
<path transform="matrix(1,0,0,-1,528.5039,122.29611)" d="M 0 0 L 0 -10.646 C 0 -48.235 -30.581 -78.825 -68.171 -78.825 C -105.761 -78.825 -136.35 -48.235 -136.35 -10.646 L -136.35 0 C -136.35 5.554 -131.843 10.061 -126.289 10.061 C -120.735 10.061 -116.229 5.554 -116.229 0 L -116.229 -10.646 C -116.229 -37.146 -94.671 -58.704 -68.171 -58.704 C -41.671 -58.704 -20.112 -37.146 -20.112 -10.646 L -20.112 0 C -20.112 5.554 -15.614 10.061 -10.061 10.061 C -4.498 10.061 0 5.554 0 0 " fill="#f7941d"/>
<path transform="matrix(1,0,0,-1,127.9912,311.24833)" d="M 0 0 C -.507 -.102 -1.042 -.152 -1.605 -.152 C -2.769 -.152 -3.604 .082 -4.111 .551 C -4.618 1.02 -4.871 1.806 -4.871 2.908 L -4.871 37.373 C -4.571 37.454 -4.167 37.547 -3.661 37.648 C -3.154 37.75 -2.619 37.802 -2.055 37.802 C -.967 37.802 -.16 37.577 .366 37.128 C .892 36.679 1.155 35.883 1.155 34.741 L 1.155 .337 C .892 .214 .507 .103 0 0 " fill="#231f20"/>
<path transform="matrix(1,0,0,-1,163.1675,277.7903)" d="M 0 0 C .289 -.521 .442 -.988 .459 -1.399 C .477 -1.812 .334 -2.233 .035 -2.663 C -.19 -2.986 -.459 -3.249 -.774 -3.45 C -1.088 -3.651 -1.402 -3.822 -1.718 -3.962 C -2.305 -3.433 -2.954 -2.852 -3.664 -2.216 C -4.373 -1.582 -5.1 -.925 -5.845 -.246 C -6.589 .432 -7.34 1.086 -8.098 1.714 C -8.856 2.342 -9.567 2.928 -10.232 3.471 C -10.162 3.821 -10.053 4.196 -9.906 4.594 C -9.76 4.991 -9.555 5.379 -9.292 5.756 C -8.88 6.348 -8.384 6.732 -7.804 6.909 C -7.225 7.084 -6.569 6.918 -5.838 6.408 C -5.37 6.082 -4.851 5.64 -4.282 5.084 C -3.714 4.527 -3.152 3.945 -2.596 3.34 C -2.041 2.732 -1.529 2.125 -1.061 1.52 C -.592 .912 -.239 .406 0 0 " fill="#231f20"/>
<path transform="matrix(1,0,0,-1,186.2495,303.1369)" d="M 0 0 C 0 -2.734 -.939 -4.877 -2.816 -6.428 C -4.693 -7.979 -7.415 -8.754 -10.981 -8.754 C -12.446 -8.754 -13.797 -8.632 -15.036 -8.387 C -16.275 -8.142 -17.337 -7.796 -18.218 -7.346 C -19.101 -6.897 -19.787 -6.367 -20.274 -5.755 C -20.762 -5.142 -21.006 -4.469 -21.006 -3.734 C -21.006 -3.122 -20.865 -2.551 -20.583 -2.021 C -20.302 -1.49 -19.917 -1.062 -19.429 -.734 C -18.378 -1.469 -17.177 -2.143 -15.825 -2.755 C -14.473 -3.367 -12.896 -3.673 -11.094 -3.673 C -9.405 -3.673 -8.109 -3.357 -7.208 -2.725 C -6.307 -2.092 -5.857 -1.184 -5.857 0 C -5.857 1.02 -6.167 1.837 -6.786 2.449 C -7.405 3.061 -8.316 3.529 -9.518 3.856 L -13.347 4.959 C -15.901 5.693 -17.777 6.692 -18.979 7.958 C -20.181 9.223 -20.781 10.958 -20.781 13.162 C -20.781 14.345 -20.556 15.457 -20.105 16.498 C -19.654 17.539 -18.988 18.437 -18.106 19.191 C -17.224 19.946 -16.126 20.538 -14.811 20.967 C -13.498 21.396 -11.995 21.61 -10.306 21.61 C -8.954 21.61 -7.725 21.497 -6.617 21.273 C -5.51 21.049 -4.553 20.742 -3.745 20.354 C -2.938 19.967 -2.309 19.487 -1.858 18.916 C -1.408 18.344 -1.183 17.732 -1.183 17.079 C -1.183 16.427 -1.314 15.865 -1.577 15.396 C -1.84 14.927 -2.178 14.549 -2.591 14.264 C -3.266 14.712 -4.271 15.202 -5.604 15.732 C -6.937 16.263 -8.373 16.528 -9.912 16.528 C -11.489 16.528 -12.728 16.232 -13.628 15.641 C -14.53 15.049 -14.98 14.223 -14.98 13.162 C -14.98 12.345 -14.727 11.672 -14.22 11.142 C -13.713 10.611 -12.84 10.182 -11.601 9.856 L -8.335 8.938 C -5.482 8.121 -3.379 7.02 -2.027 5.632 C -.676 4.244 0 2.366 0 0 " fill="#231f20"/>
<path transform="matrix(1,0,0,-1,216.6602,279.13993)" d="M 0 0 C -.375 -1.102 -.788 -2.348 -1.239 -3.734 C -1.689 -5.122 -2.159 -6.581 -2.647 -8.111 C -3.135 -9.642 -3.624 -11.193 -4.111 -12.764 C -4.599 -14.335 -5.068 -15.855 -5.519 -17.324 L 5.575 -17.324 C 5.087 -15.692 4.59 -14.049 4.083 -12.396 C 3.576 -10.743 3.088 -9.162 2.619 -7.651 C 2.149 -6.143 1.708 -4.725 1.295 -3.397 C .881 -2.071 .544 -.938 .282 0 Z M 6.871 -22.589 L -6.871 -22.589 L -9.63 -31.955 C -9.968 -32.118 -10.325 -32.24 -10.7 -32.322 C -11.076 -32.404 -11.526 -32.445 -12.052 -32.445 C -12.991 -32.445 -13.76 -32.221 -14.36 -31.771 C -14.962 -31.323 -15.262 -30.649 -15.262 -29.752 C -15.262 -29.303 -15.205 -28.864 -15.093 -28.436 C -14.98 -28.007 -14.831 -27.527 -14.642 -26.996 C -14.155 -25.282 -13.469 -23.069 -12.586 -20.354 C -11.705 -17.641 -10.766 -14.774 -9.771 -11.754 C -8.777 -8.733 -7.771 -5.765 -6.758 -2.847 C -5.744 .071 -4.862 2.571 -4.111 4.652 C -3.736 4.897 -3.154 5.132 -2.365 5.356 C -1.577 5.58 -.77 5.693 .057 5.693 C 1.145 5.693 2.121 5.529 2.985 5.204 C 3.848 4.877 4.43 4.306 4.73 3.489 C 5.556 1.163 6.458 -1.479 7.434 -4.438 C 8.41 -7.397 9.386 -10.448 10.362 -13.59 C 11.338 -16.733 12.277 -19.814 13.178 -22.834 C 14.079 -25.854 14.886 -28.588 15.6 -31.037 C 15.262 -31.445 14.82 -31.782 14.277 -32.047 C 13.731 -32.312 13.084 -32.445 12.333 -32.445 C 11.319 -32.445 10.587 -32.23 10.137 -31.802 C 9.687 -31.374 9.311 -30.649 9.011 -29.629 Z " fill="#231f20"/>
<path transform="matrix(1,0,0,-1,249.2109,286.66923)" d="M 0 0 C -1.202 0 -2.272 -.215 -3.21 -.643 C -4.149 -1.071 -4.956 -1.571 -5.631 -2.143 L -5.631 -18.427 C -5.106 -18.835 -4.375 -19.202 -3.436 -19.528 C -2.497 -19.855 -1.408 -20.019 -.168 -20.019 C 2.121 -20.019 3.979 -19.202 5.406 -17.569 C 6.833 -15.938 7.546 -13.407 7.546 -9.979 C 7.546 -6.511 6.842 -3.979 5.435 -2.388 C 4.027 -.796 2.215 0 0 0 M .957 5.143 C 2.722 5.143 4.373 4.825 5.914 4.193 C 7.452 3.56 8.786 2.621 9.912 1.377 C 11.038 .132 11.92 -1.438 12.559 -3.337 C 13.196 -5.234 13.516 -7.449 13.516 -9.979 C 13.516 -12.55 13.188 -14.795 12.53 -16.713 C 11.873 -18.632 10.944 -20.212 9.743 -21.457 C 8.541 -22.702 7.105 -23.641 5.435 -24.272 C 3.764 -24.905 1.915 -25.222 -.113 -25.222 C -2.14 -25.222 -3.933 -24.956 -5.491 -24.426 C -7.049 -23.896 -8.316 -23.284 -9.292 -22.589 C -10.081 -22.019 -10.644 -21.447 -10.982 -20.876 C -11.32 -20.305 -11.488 -19.569 -11.488 -18.672 L -11.488 15.365 C -11.226 15.446 -10.85 15.549 -10.362 15.671 C -9.875 15.794 -9.348 15.855 -8.785 15.855 C -7.697 15.855 -6.899 15.631 -6.392 15.182 C -5.885 14.732 -5.631 13.978 -5.631 12.917 L -5.631 3.244 C -4.806 3.733 -3.849 4.172 -2.76 4.561 C -1.67 4.947 -.432 5.143 .957 5.143 " fill="#231f20"/>
<path transform="matrix(1,0,0,-1,281.0864,286.66923)" d="M 0 0 C -2.253 0 -4.036 -.878 -5.351 -2.633 C -6.665 -4.388 -7.321 -6.856 -7.321 -10.04 C -7.321 -13.224 -6.683 -15.683 -5.406 -17.417 C -4.13 -19.151 -2.328 -20.019 0 -20.019 C 2.327 -20.019 4.129 -19.151 5.406 -17.417 C 6.682 -15.683 7.321 -13.224 7.321 -10.04 C 7.321 -6.897 6.673 -4.438 5.378 -2.663 C 4.083 -.888 2.29 0 0 0 M 13.347 -10.04 C 13.347 -12.366 13.027 -14.469 12.39 -16.346 C 11.751 -18.223 10.859 -19.814 9.714 -21.12 C 8.568 -22.427 7.17 -23.437 5.519 -24.15 C 3.866 -24.864 2.027 -25.222 0 -25.222 C -2.027 -25.222 -3.868 -24.864 -5.519 -24.15 C -7.172 -23.437 -8.57 -22.427 -9.715 -21.12 C -10.86 -19.814 -11.752 -18.223 -12.39 -16.346 C -13.029 -14.469 -13.348 -12.366 -13.348 -10.04 C -13.348 -7.714 -13.029 -5.612 -12.39 -3.734 C -11.752 -1.857 -10.851 -.267 -9.687 1.041 C -8.523 2.346 -7.115 3.356 -5.463 4.07 C -3.811 4.784 -1.991 5.143 0 5.143 C 1.989 5.143 3.81 4.784 5.463 4.07 C 7.114 3.356 8.522 2.336 9.686 1.01 C 10.849 -.317 11.751 -1.908 12.39 -3.765 C 13.027 -5.622 13.347 -7.714 13.347 -10.04 " fill="#231f20"/>
<path transform="matrix(1,0,0,-1,300.7959,282.4455)" d="M 0 0 C .263 .081 .638 .174 1.127 .275 C 1.614 .377 2.141 .429 2.703 .429 C 3.792 .429 4.59 .204 5.097 -.245 C 5.604 -.694 5.856 -1.47 5.856 -2.571 L 5.856 -17.691 C 5.856 -20.06 6.429 -21.742 7.575 -22.742 C 8.72 -23.742 10.306 -24.242 12.333 -24.242 C 13.647 -24.242 14.755 -24.1 15.656 -23.813 C 16.558 -23.528 17.271 -23.222 17.797 -22.896 L 17.797 0 C 18.096 .081 18.48 .174 18.951 .275 C 19.42 .377 19.937 .429 20.5 .429 C 21.588 .429 22.396 .204 22.921 -.245 C 23.447 -.694 23.71 -1.47 23.71 -2.571 L 23.71 -23.201 C 23.71 -24.1 23.578 -24.834 23.315 -25.405 C 23.053 -25.978 22.527 -26.528 21.739 -27.059 C 20.762 -27.67 19.477 -28.222 17.881 -28.711 C 16.285 -29.201 14.417 -29.445 12.277 -29.445 C 8.409 -29.445 5.397 -28.518 3.238 -26.66 C 1.079 -24.804 0 -21.854 0 -17.814 Z " fill="#231f20"/>
<path transform="matrix(1,0,0,-1,339.3721,305.7688)" d="M 0 0 C .788 -.613 1.896 -.919 3.323 -.919 C 3.961 -.919 4.638 -.817 5.351 -.613 C 6.063 -.409 6.683 -.164 7.209 .122 C 7.471 -.205 7.706 -.572 7.913 -.979 C 8.119 -1.389 8.223 -1.878 8.223 -2.449 C 8.223 -3.511 7.725 -4.388 6.73 -5.082 C 5.734 -5.775 4.225 -6.122 2.197 -6.122 C -.619 -6.122 -2.862 -5.438 -4.533 -4.071 C -6.204 -2.705 -7.039 -.45 -7.039 2.693 L -7.039 31.281 C -6.777 31.363 -6.401 31.465 -5.912 31.588 C -5.426 31.71 -4.899 31.771 -4.336 31.771 C -3.247 31.771 -2.449 31.547 -1.942 31.098 C -1.436 30.648 -1.183 29.894 -1.183 28.833 L -1.183 22.772 L 7.547 22.772 C 7.696 22.527 7.837 22.181 7.969 21.731 C 8.101 21.282 8.167 20.813 8.167 20.323 C 8.167 18.568 7.471 17.691 6.083 17.691 L -1.183 17.691 L -1.183 3.122 C -1.183 1.652 -.788 .611 0 0 " fill="#231f20"/>
<path transform="matrix(1,0,0,-1,378.9062,279.2619)" d="M 0 0 L 0 -31.649 C -.263 -31.772 -.646 -31.884 -1.153 -31.986 C -1.661 -32.088 -2.196 -32.139 -2.759 -32.139 C -3.924 -32.139 -4.75 -31.904 -5.237 -31.436 C -5.726 -30.967 -5.969 -30.181 -5.969 -29.078 L -5.969 0 L -15.937 0 C -16.125 .285 -16.284 .652 -16.415 1.102 C -16.548 1.55 -16.613 2.06 -16.613 2.632 C -16.613 3.529 -16.415 4.213 -16.021 4.684 C -15.627 5.151 -15.093 5.387 -14.416 5.387 L 10.081 5.387 C 10.23 5.142 10.372 4.795 10.503 4.347 C 10.635 3.896 10.701 3.406 10.701 2.877 C 10.701 .958 9.969 0 8.504 0 Z " fill="#231f20"/>
<path transform="matrix(1,0,0,-1,400.7012,310.9114)" d="M 0 0 C -.263 -.123 -.629 -.234 -1.098 -.337 C -1.567 -.438 -2.103 -.489 -2.702 -.489 C -3.793 -.489 -4.599 -.265 -5.124 .184 C -5.65 .632 -5.912 1.387 -5.912 2.448 L -5.912 28.344 C -5.613 28.425 -5.229 28.527 -4.758 28.649 C -4.289 28.772 -3.754 28.833 -3.153 28.833 C -2.064 28.833 -1.267 28.608 -.76 28.159 C -.253 27.71 0 26.936 0 25.833 Z M -6.532 37.343 C -6.532 38.403 -6.194 39.291 -5.519 40.006 C -4.843 40.719 -3.979 41.076 -2.928 41.076 C -1.878 41.076 -1.033 40.719 -.395 40.006 C .244 39.291 .563 38.403 .563 37.343 C .563 36.281 .244 35.393 -.395 34.68 C -1.033 33.965 -1.878 33.608 -2.928 33.608 C -3.979 33.608 -4.843 33.965 -5.519 34.68 C -6.194 35.393 -6.532 36.281 -6.532 37.343 " fill="#231f20"/>
<path transform="matrix(1,0,0,-1,440.1514,287.92414)" d="M 0 0 C -.921 .835 -2.168 1.255 -3.745 1.255 C -4.797 1.255 -5.801 1.04 -6.759 .612 C -7.716 .184 -8.588 -.398 -9.377 -1.133 C -9.302 -1.46 -9.246 -1.807 -9.208 -2.174 C -9.171 -2.541 -9.151 -2.908 -9.151 -3.275 L -9.151 -22.987 C -9.414 -23.11 -9.791 -23.222 -10.277 -23.324 C -10.767 -23.426 -11.273 -23.477 -11.799 -23.477 C -12.888 -23.477 -13.694 -23.252 -14.22 -22.804 C -14.746 -22.355 -15.009 -21.601 -15.009 -20.539 L -15.009 -3.949 C -15.009 -2.153 -15.479 -.837 -16.417 0 C -17.355 .835 -18.613 1.255 -20.189 1.255 C -21.241 1.255 -22.236 1.071 -23.174 .703 C -24.113 .336 -24.902 -.072 -25.54 -.521 L -25.54 -22.987 C -25.803 -23.11 -26.169 -23.222 -26.638 -23.324 C -27.108 -23.426 -27.623 -23.477 -28.187 -23.477 C -29.276 -23.477 -30.083 -23.252 -30.608 -22.804 C -31.135 -22.355 -31.397 -21.601 -31.397 -20.539 L -31.397 -.337 C -31.397 .602 -31.228 1.355 -30.89 1.928 C -30.552 2.499 -29.988 3.07 -29.2 3.643 C -28.112 4.417 -26.742 5.07 -25.089 5.602 C -23.437 6.131 -21.767 6.397 -20.077 6.397 C -18.312 6.397 -16.726 6.131 -15.318 5.602 C -13.91 5.07 -12.756 4.294 -11.854 3.275 C -10.804 4.172 -9.556 4.917 -8.109 5.509 C -6.665 6.101 -4.984 6.397 -3.069 6.397 C -1.605 6.397 -.235 6.202 1.042 5.815 C 2.317 5.427 3.416 4.814 4.336 3.979 C 5.256 3.142 5.978 2.091 6.504 .826 C 7.029 -.439 7.293 -1.95 7.293 -3.704 L 7.293 -22.987 C 6.992 -23.11 6.607 -23.222 6.138 -23.324 C 5.669 -23.426 5.153 -23.477 4.59 -23.477 C 3.5 -23.477 2.693 -23.252 2.168 -22.804 C 1.643 -22.355 1.38 -21.601 1.38 -20.539 L 1.38 -3.949 C 1.38 -2.153 .919 -.837 0 0 " fill="#231f20"/>
<path transform="matrix(1,0,0,-1,466.7607,286.4856)" d="M 0 0 C -2.065 0 -3.783 -.756 -5.153 -2.266 C -6.524 -3.775 -7.246 -5.938 -7.321 -8.754 L 6.532 -6.611 C 6.383 -4.775 5.763 -3.214 4.675 -1.929 C 3.585 -.643 2.027 0 0 0 M -6.983 -13.468 C -6.458 -15.794 -5.435 -17.52 -3.914 -18.641 C -2.394 -19.764 -.45 -20.324 1.915 -20.324 C 3.492 -20.324 4.937 -20.06 6.252 -19.528 C 7.565 -18.998 8.616 -18.427 9.404 -17.814 C 10.455 -18.468 10.981 -19.386 10.981 -20.569 C 10.981 -21.264 10.737 -21.906 10.25 -22.498 C 9.761 -23.09 9.096 -23.6 8.251 -24.028 C 7.405 -24.456 6.41 -24.793 5.266 -25.038 C 4.12 -25.283 2.891 -25.405 1.577 -25.405 C -.602 -25.405 -2.582 -25.078 -4.365 -24.426 C -6.147 -23.773 -7.678 -22.794 -8.954 -21.487 C -10.231 -20.182 -11.217 -18.57 -11.91 -16.651 C -12.606 -14.733 -12.953 -12.51 -12.953 -9.979 C -12.953 -7.53 -12.615 -5.378 -11.938 -3.521 C -11.264 -1.664 -10.344 -.113 -9.18 1.132 C -8.016 2.377 -6.646 3.325 -5.068 3.979 C -3.492 4.631 -1.802 4.959 0 4.959 C 1.803 4.959 3.444 4.642 4.928 4.01 C 6.41 3.376 7.687 2.499 8.758 1.377 C 9.827 .254 10.652 -1.082 11.235 -2.633 C 11.816 -4.184 12.107 -5.877 12.107 -7.714 C 12.107 -8.734 11.883 -9.479 11.432 -9.948 C 10.981 -10.418 10.324 -10.734 9.462 -10.896 Z " fill="#231f20"/>
<path transform="matrix(1,0,0,-1,153.0781,308.216)" d="M 0 0 C 0 -1.064 -.497 -1.943 -1.491 -2.635 C -2.484 -3.327 -4.001 -3.673 -6.024 -3.673 C -8.836 -3.673 -11.081 -2.99 -12.758 -1.624 C -14.426 -.258 -15.259 1.996 -15.259 5.137 L -15.259 20.139 L -18.578 20.139 L -18.578 25.222 L -15.259 25.222 L -15.259 33.73 C -15.002 33.81 -14.621 33.916 -14.133 34.031 C -13.645 34.156 -13.122 34.218 -12.554 34.218 C -11.471 34.218 -10.673 33.996 -10.167 33.544 C -9.652 33.092 -9.404 32.337 -9.404 31.281 L -9.404 25.222 L -.674 25.222 C -.523 24.974 -.381 24.628 -.249 24.175 C -.125 23.731 -.053 23.262 -.053 22.773 C -.053 21.017 -.754 20.139 -2.138 20.139 L -9.404 20.139 L -9.404 5.571 C -9.404 4.099 -9.005 3.061 -8.224 2.448 C -7.435 1.836 -6.326 1.525 -4.897 1.525 C -4.258 1.525 -3.584 1.632 -2.875 1.836 C -2.156 2.04 -1.535 2.279 -1.012 2.572 C -.754 2.244 -.515 1.872 -.311 1.464 C -.106 1.056 0 .567 0 0 " fill="#231f20"/>
</g>
</g>
</g>
</svg>
